<svg xmlns="http://www.w3.org/2000/svg" viewBox="0 0 512 512" role="img" aria-label="UK Health Navigator">
  <rect width="512" height="512" rx="96" fill="#ffffff"/>
  <path d="M92 150c0-32 26-58 58-58h212c32 0 58 26 58 58v212c0 32-26 58-58 58H150c-32 0-58-26-58-58V150z" fill="#005EB8"/>
  <path d="M154 194h204v56H154zM228 120h56v260h-56z" fill="#fff"/>
  <path d="M338 324c34-24 54-58 54-102 0-19-4-38-12-55 26 29 40 66 40 106 0 59-31 111-78 139l-4-88z" fill="#007C89"/>
  <path d="M174 324c-34-24-54-58-54-102 0-19 4-38 12-55-26 29-40 66-40 106 0 59 31 111 78 139l4-88z" fill="#D9F0F3"/>
</svg>
